PathFileType	4	(X/Y/Z)	C:/Users/beibeiliu/ov580/test_trc\sequence.11_training_dense_left.trc
DataRate	CameraRate	NumFrames	NumMarkers	Units	OrigDataRate	OrigDataStartFrame	OrigNumFrames
120	120	21	19	mm	120	349	398
Frame#	Time	ThumbCMC			ThumbMCP			ThumbIP			ThumbTip			IndexMCP			IndexPIP			IndexTip			MiddleMCP			MiddlePIP			MiddleTip			RingMCP			RingPIP			RingTip			PinkyMCP			PinkyPIP			PinkyTip			BackHand1			BackHand2			BackHand3	
		X0	Y0	Z0	X1	Y1	Z1	X2	Y2	Z2	X3	Y3	Z3	X4	Y4	Z4	X5	Y5	Z5	X6	Y6	Z6	X7	Y7	Z7	X8	Y8	Z8	X9	Y9	Z9	X10	Y10	Z10	X11	Y11	Z11	X12	Y12	Z12	X13	Y13	Z13	X14	Y14	Z14	X15	Y15	Z15	X16	Y16	Z16	X17	Y17	Z17	X18	Y18	Z18	
348	2.9	-156.084	42.0446	2.56019	-134.566	40.2347	-16.256	-125.078	35.8368	-33.2718	-114.218	35.6507	-46.1568	-138.774	-5.32933	-43.2277	-126.335	-18.2061	-20.8426	-135.809	3.91965	-1.97254	-146.702	-20.0482	-36.2078	-133.666	-25.4324	-9.35264	-147.676	-1.04193	5.9831	-163.758	-29.201	-22.8827	-145.24	-26.3158	-2.1172	-159.755	-0.698824	9.5637	-175.453	-31.7274	-13.7421	-157.856	-28.8444	2.77389	-164.869	-2.38727	9.76019	-193.778	11.3241	-17.9584	-198.903	27.8588	2.08218	-181.153	34.8949	-14.7545	
349	2.90833	-160.423	40.6362	-0.164087	-142.319	36.5178	-17.7828	-128.029	34.7192	-38.6346	-116.294	39.617	-53.611	-138.022	-8.71254	-39.9402	-118.889	-15.7445	-20.3672	-133.621	6.8318	-0.872351	-145.631	-26.0657	-30.9469	-125.519	-27.0944	-8.60493	-140.252	1.73876	6.70926	-152.742	-33.1509	-18.4482	-137.508	-24.7803	4.17048	-149.003	-2.46781	11.0083	-161.558	-38.9504	-6.98488	-147.617	-29.2826	6.99581	-155.794	-6.0267	12.7239	-195.559	-2.49064	-14.4976	-203.365	16.9542	1.75182	-183.505	24.4569	-15.1428	
350	2.91667	-163.77	38.9551	-1.62169	-144.831	38.8998	-19.4377	-132.762	37.9818	-36.1902	-121.391	39.7229	-49.91	-129.372	-11.6576	-37.9578	-116.156	-15.6794	-16.0678	-134.506	6.19077	-0.222512	-135.995	-28.0762	-26.9155	-121.388	-24.0569	-2.89595	-139.893	0.568931	9.02899	-147.416	-32.0943	-16.5149	-131.485	-22.0891	7.47753	-147.258	-0.92534	13.0535	-159.078	-42.1619	-3.21389	-142.677	-27.2888	12.8752	-156.601	-5.02639	16.786	-187.636	-10.969	-14.1686	-200.664	10.3373	0.436971	-186.807	19.6917	-13.9058	
351	2.925	-166.313	36.9737	-4.69903	-147.077	39.2355	-21.5205	-134.186	38.1553	-39.8614	-125.914	39.6534	-51.4092	-127.356	-9.46648	-37.5268	-112.069	-12.9195	-17.9373	-133.831	7.18136	-1.33541	-134.741	-28.988	-25.0161	-114.273	-21.6048	-5.42003	-136.651	-3.54188	11.7353	-139.979	-37.866	-10.1923	-128.15	-23.3151	10.5558	-144.459	-5.50487	18.2648	-152.668	-41.4745	-1.19822	-137.642	-28.7503	12.1307	-152.907	-8.30764	18.595	-187.337	-12.0043	-11.1951	-199.873	0.4569	3.51772	-184.775	15.8048	-16.2937	
352	2.93333	-168.286	32.8002	-4.29425	-150.826	36.7515	-19.8124	-137.214	34.7049	-42.6886	-127.849	37.8249	-51.9686	-127.126	-9.31713	-37.9649	-108.963	-7.08995	-14.5179	-132.774	3.75522	0.168332	-133.125	-27.4436	-26.9052	-112.876	-23.7916	-4.27919	-135.67	1.81834	9.37919	-135.866	-38.4418	-8.31564	-124.07	-23.1779	7.67187	-142.495	-2.48844	15.4653	-145.074	-45.0633	3.81003	-135.518	-26.389	14.4032	-150.335	-6.59255	17.8632	-185.773	-20.655	-13.0273	-201.401	-3.7518	6.69117	-187.333	9.55402	-14.2008	
353	2.94167	-170.562	27.9978	-5.68018	-153.62	34.2415	-20.4342	-140.825	33.3498	-42.053	-131.653	38.1127	-52.1716	-126.004	-15.034	-35.3939	-110.014	-10.2796	-13.0293	-129.841	6.5246	-0.659039	-126.174	-28.2416	-25.5192	-112.1	-18.7367	-1.74421	-135.407	-1.83477	12.0043	-136.86	-38.8707	-8.77076	-121.602	-21.4459	9.08771	-138.587	-3.47251	16.3984	-143.146	-46.3021	5.57052	-133.071	-25.631	14.3821	-149.096	-8.88142	19.6189	-182.51	-22.6505	-11.4026	-199.866	-5.01368	4.55433	-185.451	6.17672	-17.2208	
354	2.95	-173.715	30.5656	-4.95814	-156.526	34.9547	-23.7148	-144.634	33.9295	-42.0993	-134.544	36.7103	-55.8352	-127.122	-12.6462	-36.4159	-109.526	-9.99205	-14.4297	-127.498	6.12578	-0.587287	-130.799	-30.5348	-23.4159	-111.548	-19.4351	-0.419036	-134.274	-3.3471	12.881	-134.443	-37.5449	-9.14185	-121.431	-20.9128	9.17543	-142.047	-4.92601	18.1017	-144.704	-44.5071	2.54375	-133.064	-26.1526	18.7741	-148.323	-8.02241	16.8354	-184.937	-23.7981	-10.7078	-204.28	-10.3328	6.73392	-187.314	4.17436	-12.4059	
355	2.95833	-176.089	28.5828	-2.74853	-158.973	34.5715	-22.2195	-146.43	32.3739	-43.281	-138.604	38.73	-53.0474	-127.738	-13.6974	-35.0055	-109.603	-10.8242	-13.5414	-125.537	5.68707	0.413111	-126.624	-30.9559	-21.7864	-110.908	-19.4145	-1.07271	-134.188	-4.63536	14.306	-135.408	-38.8756	-7.8276	-122.141	-20.8728	11.0413	-140.248	-4.80313	17.715	-140.529	-45.5892	6.42828	-133.588	-24.8888	16.1	-152.035	-8.88144	20.2102	-185.02	-29.1048	-7.40966	-201.986	-11.6713	4.26668	-186.523	2.50483	-16.4462	
356	2.96667	-177.713	27.4589	-3.2289	-160.777	30.6235	-21.8889	-149.242	30.8604	-38.0605	-139.454	38.1949	-56.817	-126.828	-12.8833	-35.3715	-108.462	-11.7014	-18.3269	-128.301	1.41704	3.29312	-128.84	-29.7622	-23.17	-112.403	-21.0796	0.868354	-137.224	-3.86654	14.998	-133.258	-36.2079	-9.36323	-122.393	-20.7193	11.6297	-144.463	-7.06411	21.0641	-140.37	-44.0229	3.3489	-133.012	-24.852	16.1142	-152.373	-8.75391	16.9671	-183.287	-29.3358	-7.46538	-202.534	-11.0977	7.01684	-188.177	2.71137	-15.9995	
357	2.975	-177.133	28.3145	-0.674764	-161.644	33.8405	-19.005	-148.834	31.7972	-41.7799	-139.977	34.683	-53.1808	-129.478	-13.8329	-34.9268	-108.253	-12.2767	-18.0971	-123.433	-0.792807	3.81777	-129.815	-26.4441	-23.7944	-111.674	-22.6933	-1.04483	-136.171	-2.81445	15.4779	-133.946	-37.4315	-8.82643	-122.699	-24.9414	13.0662	-143.077	-5.48706	19.6008	-142.02	-44.4897	3.43686	-132.55	-30.2787	16.7072	-154.648	-11.9797	19.3119	-185.934	-27.3023	-6.87861	-203.099	-13.9319	7.62273	-189.349	1.41551	-11.8451	
358	2.98333	-176.254	30.6567	-0.851988	-158.785	34.0086	-18.4728	-147.431	32.0316	-38.1449	-137.859	35.3878	-53.5694	-129.19	-11.0345	-36.6953	-107.77	-15.462	-18.0638	-124.691	1.18437	3.47558	-125.648	-29.7981	-22.7078	-110.626	-21.8305	1.36279	-133.738	-5.97993	16.7553	-131.599	-40.9657	-5.31262	-123.04	-28.5569	13.9602	-144.505	-9.53965	23.2515	-142.154	-48.6422	5.67505	-133.752	-31.0504	21.355	-148.827	-12.1178	19.4135	-182.679	-26.5792	-10.6481	-202.802	-14.8044	6.36612	-186.427	5.61644	-12.3208	
359	2.99167	-173.536	28.1341	-2.77273	-158.395	34.1855	-17.4664	-146.066	36.0398	-37.3445	-136.12	39.0587	-51.7864	-125.559	-9.03337	-36.544	-106.191	-9.42658	-16.8145	-123.172	2.42319	3.55486	-127.046	-26.2089	-24.7465	-109.565	-22.7672	-2.37443	-135.967	-5.37946	16.4217	-135.074	-39.5379	-7.90048	-122.105	-25.8952	15.2945	-141.905	-9.71188	23.5424	-145.729	-45.1649	1.54073	-131.158	-33.3229	18.2034	-151.212	-13.1457	21.7099	-183.452	-27.2197	-8.81822	-202.567	-13.2819	9.98441	-183.068	5.70281	-14.8759	
360	3	-172.146	31.3977	-1.77412	-157.334	32.7253	-14.8396	-143.974	30.693	-38.1824	-136.217	39.1223	-52.6702	-126.2	-11.8493	-34.3807	-105.89	-8.41651	-14.5864	-125.453	2.09891	3.06622	-124.605	-24.3208	-24.0542	-108.652	-20.3559	1.73926	-133.532	-0.307532	13.852	-134.326	-39.6119	-8.08381	-119.511	-26.367	13.6142	-141.762	-7.74406	22.0322	-139.301	-43.9043	2.06552	-128.921	-32.1265	18.6933	-145.774	-11.9711	19.0607	-180.05	-26.429	-9.71766	-198.263	-14.0857	7.40562	-184.726	4.95457	-12.2189	
361	3.00833	-172.345	27.9514	1.21413	-155.029	33.217	-18.55	-144.006	34.0029	-39.0554	-135.603	41.5742	-52.4311	-124.78	-11.8532	-32.9615	-105.108	-10.7216	-15.9836	-124.14	5.28988	3.95261	-127.214	-23.8142	-24.1684	-106.448	-19.3143	-1.72791	-129.023	-1.88826	15.7318	-133.131	-37.6586	-7.67281	-118.895	-23.503	15.2442	-139.153	-6.23373	22.3506	-141.16	-46.3941	3.98418	-128.887	-29.4549	18.9786	-147.829	-9.20068	21.2723	-181.228	-20.1959	-6.72418	-199.145	-6.90495	9.15	-184.254	3.74039	-9.69793	
362	3.01667	-171.763	30.3146	3.57363	-153.765	37.1686	-19.1067	-142.861	38.7422	-36.3226	-133.476	43.1301	-53.1613	-125.458	-8.4052	-32.5811	-105.716	-9.91094	-13.8283	-123.876	7.86218	3.98158	-127.905	-27.1754	-20.6312	-106.486	-17.3656	0.865666	-128.901	-0.293758	15.7945	-131.825	-35.9399	-8.13638	-117.788	-23.0205	9.99384	-140.368	-3.94927	20.1172	-140.489	-43.0331	3.00012	-128.909	-28.8403	19.9554	-144.872	-10.4897	21.0691	-182.344	-18.9468	-7.64063	-197.314	-9.05205	6.6612	-183.859	4.70714	-10.5009	
363	3.025	-170.96	32.4788	2.87619	-152.41	34.2628	-16.2516	-141.83	38.7236	-32.1884	-132.33	41.9563	-49.5172	-124.422	-5.61089	-33.1016	-103.743	-8.11433	-13.3986	-124.658	9.8857	3.57655	-125.277	-24.6186	-20.557	-106.562	-18.7034	1.22188	-130.695	-1.52262	17.8816	-132.056	-33.6572	-8.54302	-118.109	-22.2346	12.8892	-138.047	-6.45918	22.9945	-139.326	-42.3334	2.87176	-128.996	-30.2074	21.2211	-144.585	-9.37442	24.8881	-180.727	-18.3399	-7.55445	-197.338	-3.77848	8.39923	-182.1	10.7966	-12.5075	
364	3.03333	-168.432	33.7179	3.2244	-152.851	34.6882	-15.427	-140.001	37.6086	-34.393	-131.312	42.2418	-45.4215	-121.161	-9.79932	-30.7257	-104.913	-9.86214	-10.2421	-123.308	5.22083	6.70725	-124.911	-24.1566	-20.9634	-106.375	-17.2779	4.08119	-130.137	-1.97603	18.5372	-131.359	-36.2833	-6.43378	-118.994	-22.8444	14.3403	-136.91	-5.75778	22.4136	-141.67	-45.6535	5.65211	-129.46	-26.087	19.0169	-145.044	-8.09834	19.5278	-182.613	-21.1357	-5.388	-197.824	-3.03172	9.06298	-179.976	8.40292	-12.6432	
365	3.04167	-168.955	32.7011	5.20168	-151.266	35.2167	-15.8294	-140.062	38.2281	-32.6229	-130.099	44.2279	-46.7523	-126.119	-7.43643	-31.384	-105.505	-12.0247	-11.3651	-123.91	4.20268	9.01757	-126.327	-22.2966	-20.5642	-108.174	-20.945	3.23532	-127.698	-2.9205	19.712	-130.35	-33.8685	-6.09916	-121.118	-21.9981	17.2126	-137.972	-4.74159	22.0341	-144.076	-45.2993	5.60525	-130.958	-28.5579	20.3821	-144.892	-8.65619	24.2729	-178.509	-17.7931	-9.59212	-197.682	-4.85124	8.11079	-182.339	10.7224	-8.59561	
366	3.05	-165.223	32.868	5.35444	-149.278	38.78	-11.9731	-136.37	38.9544	-32.8074	-127.014	48.3183	-43.5084	-124.029	-7.41608	-31.0933	-104.798	-14.2984	-10.2976	-121.132	-0.86489	10.6159	-126.612	-25.7167	-20.0178	-109.744	-22.9703	3.97461	-131.457	-4.11572	22.633	-134.236	-36.9322	-5.80432	-123.6	-28.3668	16.7265	-140.558	-7.30066	26.3089	-146.929	-44.2306	4.21372	-134.774	-33.2497	19.8165	-148.385	-9.98446	25.1462	-181.691	-14.02	-11.2391	-198.327	2.90344	7.65192	-181.799	13.9308	-9.45387	
367	3.05833	-161.161	37.8854	7.62361	-144.507	37.6964	-11.887	-133.78	36.3042	-28.4796	-123.006	43.7791	-43.5862	-124.512	-13.1522	-31.4384	-108.341	-22.4194	-13.5851	-115.651	-3.09408	10.3542	-133.699	-30.5961	-21.2747	-113.526	-32.6441	0.0349832	-128.28	-13.5342	23.1479	-142.385	-38.7679	-8.83437	-127.108	-33.8971	11.8442	-141.921	-9.78383	26.5539	-156.211	-47.1949	2.28119	-139.037	-37.7692	17.7497	-145.442	-13.497	24.2168	-183.431	-13.2433	-9.34556	-198.828	7.54832	7.85778	-177.73	19.982	-9.01583	
368	3.06667	-159.276	35.8196	10.4758	-139.523	38.8369	-9.95127	-127.416	40.1333	-28.8289	-118.253	45.3311	-42.9495	-126.294	-11.7086	-34.7125	-106.476	-24.8061	-16.0052	-111.247	-12.1956	9.88254	-136.302	-31.481	-25.3276	-116.976	-38.3303	-3.26191	-120.623	-21.7382	20.1582	-142.857	-39.6469	-12.1589	-129.147	-37.735	7.34813	-136.198	-13.0985	24.6946	-155.921	-45.5771	-1.34131	-140.357	-38.4486	15.0823	-143.491	-18.9832	27.2039	-184.15	-6.66802	-11.2394	-197.329	10.0449	9.37149	-175.517	21.8099	-8.96345	
